<?xml version="1.0" standalone="no"?>
<!DOCTYPE svg PUBLIC "-//W3C//DTD SVG 20010904//EN"
 "http://www.w3.org/TR/2001/REC-SVG-20010904/DTD/svg10.dtd">
<svg version="1.0" xmlns="http://www.w3.org/2000/svg"
 width="500.000000pt" height="155.000000pt" viewBox="0 0 500.000000 155.000000"
 preserveAspectRatio="xMidYMid meet">

<g transform="translate(0.000000,155.000000) scale(0.100000,-0.100000)"
fill="#000000" stroke="none">
<path d="M2780 1372 c-82 -27 -85 -29 -88 -60 -3 -30 -1 -32 27 -32 l31 0 0
-435 0 -435 -36 0 c-33 0 -35 -2 -32 -27 l3 -28 143 -3 142 -3 0 31 c0 27 -3
30 -30 30 l-30 0 0 198 0 198 38 35 c57 55 83 69 128 69 29 0 46 -6 60 -21 17
-19 19 -41 22 -250 l3 -229 -36 0 c-34 0 -36 -2 -33 -28 l3 -27 143 -3 142 -3
0 31 c0 27 -3 30 -29 30 l-30 0 -3 243 c-3 275 -7 290 -83 327 -83 40 -186 23
-270 -46 l-55 -44 0 255 0 255 -22 0 c-13 -1 -61 -13 -108 -28z"/>
<path d="M3538 1368 c-84 -28 -88 -31 -88 -59 0 -26 4 -29 30 -29 l30 0 0
-435 0 -435 -36 0 c-33 0 -35 -2 -32 -27 l3 -28 143 -3 142 -3 0 31 c0 27 -3
30 -30 30 l-30 0 0 495 0 495 -22 -1 c-13 0 -62 -14 -110 -31z"/>
<path d="M1660 1278 c-5 -13 -82 -212 -169 -443 -150 -395 -161 -420 -185
-423 -21 -3 -26 -9 -26 -33 l0 -30 98 3 97 3 3 28 c3 24 0 27 -27 27 -35 0
-36 4 -17 51 7 19 26 67 40 107 l28 72 158 0 158 0 16 -42 c9 -24 27 -74 41
-112 14 -37 25 -70 25 -72 0 -2 -9 -4 -20 -4 -16 0 -20 -7 -20 -30 l0 -30 135
0 135 0 0 30 c0 26 -4 30 -28 30 -28 0 -29 3 -189 443 l-161 442 -41 3 c-35 3
-42 0 -51 -20z m70 -386 c26 -75 51 -145 55 -154 7 -17 -3 -18 -119 -18 -96 0
-126 3 -126 13 0 7 25 78 55 157 31 80 58 152 61 160 8 22 17 2 74 -158z"/>
<path d="M2295 989 c-100 -37 -151 -131 -125 -228 18 -69 61 -105 190 -161
127 -55 163 -85 158 -133 -7 -69 -116 -95 -205 -49 -44 23 -60 44 -66 84 -3
18 -11 24 -40 26 l-37 3 0 -90 0 -91 30 0 c16 0 33 7 37 15 8 13 14 13 51 -5
63 -31 187 -30 250 2 78 38 111 110 97 206 -10 68 -73 126 -185 171 -47 18
-102 44 -122 57 -33 21 -38 29 -38 63 0 31 6 44 26 60 64 51 211 4 217 -68 1
-17 8 -21 33 -21 29 0 32 3 38 38 3 20 6 56 6 80 0 40 -1 42 -30 42 -18 0 -33
-6 -36 -15 -5 -13 -10 -12 -37 2 -39 20 -170 27 -212 12z"/>
<path d="M3982 986 c-122 -40 -197 -143 -209 -286 -13 -156 55 -285 180 -340
51 -23 184 -29 242 -12 51 16 165 76 165 87 0 6 -6 19 -13 29 -12 16 -17 15
-77 -13 -82 -39 -116 -45 -169 -31 -85 23 -147 112 -153 221 l-3 54 209 3 209
2 -5 63 c-8 98 -52 168 -133 210 -51 26 -180 33 -243 13z m163 -70 c24 -24 45
-82 45 -123 0 -23 -2 -23 -124 -23 l-124 0 10 38 c14 52 45 100 76 117 42 22
89 19 117 -9z"/>
<path d="M4380 961 c0 -25 4 -30 27 -33 25 -3 33 -20 134 -268 60 -146 111
-270 113 -277 10 -25 -67 -156 -125 -213 l-58 -57 44 -36 43 -36 35 53 c58 88
89 157 222 504 127 329 128 332 156 332 26 0 29 4 29 30 l0 30 -103 0 c-57 0
-106 -2 -109 -5 -3 -3 -3 -17 0 -30 4 -22 10 -25 44 -25 34 0 39 -3 34 -17
-48 -131 -121 -313 -125 -313 -6 0 -132 310 -131 323 0 4 16 7 36 7 33 0 35 2
32 28 l-3 27 -147 3 -148 3 0 -30z"/>
<path d="M4870 440 c-24 -24 -26 -53 -4 -74 18 -19 65 -21 82 -4 18 18 14 63
-6 81 -25 22 -48 21 -72 -3z m68 -2 c28 -28 7 -78 -33 -78 -42 0 -59 44 -29
74 18 19 45 21 62 4z"/>
<path d="M4880 400 c0 -30 14 -41 23 -17 4 9 8 8 16 -3 8 -12 11 -8 11 18 0
28 -3 32 -25 32 -21 0 -25 -5 -25 -30z m40 16 c0 -3 -4 -8 -10 -11 -5 -3 -10
-1 -10 4 0 6 5 11 10 11 6 0 10 -2 10 -4z"/>
<path d="M3064 188 c-37 -17 -57 -93 -38 -143 10 -25 62 -47 95 -40 39 9 59
40 59 91 0 56 -7 72 -41 89 -32 17 -46 18 -75 3z m68 -35 c36 -32 14 -123 -30
-123 -46 0 -70 83 -35 122 20 22 41 23 65 1z"/>
<path d="M3623 190 c-27 -11 -40 -54 -22 -76 7 -8 28 -22 46 -29 61 -26 29
-62 -37 -44 -8 2 -15 -2 -15 -11 0 -8 14 -18 32 -23 44 -13 83 12 83 53 0 24
-7 33 -39 50 -46 23 -58 37 -42 53 8 8 19 8 40 0 24 -8 31 -8 35 3 3 7 2 15
-2 17 -19 11 -59 14 -79 7z"/>
<path d="M3934 190 c-60 -24 -73 -112 -25 -161 50 -49 111 -31 132 39 14 49
-8 107 -46 122 -30 12 -33 12 -61 0z m58 -37 c23 -20 24 -85 2 -107 -34 -35
-84 -2 -84 54 0 32 26 70 47 70 9 0 25 -7 35 -17z"/>
<path d="M1340 94 c0 -72 3 -95 13 -92 6 3 13 21 15 41 3 35 5 37 38 37 24 0
34 5 34 15 0 10 -11 15 -35 15 -32 0 -35 2 -35 30 0 29 2 30 45 30 25 0 45 5
45 10 0 6 -27 10 -60 10 l-60 0 0 -96z"/>
<path d="M1490 115 c0 -62 4 -79 20 -95 27 -27 66 -25 95 5 22 21 25 33 25 95
0 56 -3 70 -15 70 -12 0 -15 -13 -15 -61 0 -68 -12 -99 -38 -99 -32 0 -42 22
-42 92 0 54 -3 68 -15 68 -12 0 -15 -15 -15 -75z"/>
<path d="M1667 98 c1 -70 5 -93 15 -93 7 0 14 14 16 32 4 43 25 42 52 -2 12
-19 28 -35 36 -35 19 0 18 9 -6 45 -19 29 -19 29 0 48 11 10 20 29 20 42 0 38
-25 55 -83 55 l-52 0 2 -92z m89 58 c25 -19 8 -50 -30 -54 -24 -3 -26 0 -26
32 0 40 20 48 56 22z"/>
<path d="M1840 94 c0 -72 3 -95 13 -92 7 3 14 29 17 62 l5 58 40 -58 c22 -32
45 -59 50 -59 6 0 11 39 13 93 2 76 0 92 -12 92 -11 0 -16 -15 -18 -57 l-3
-58 -39 58 c-56 83 -66 77 -66 -39z"/>
<path d="M2027 98 c1 -56 6 -94 12 -96 7 -2 11 28 11 92 0 70 -3 96 -12 96
-10 0 -13 -24 -11 -92z"/>
<path d="M2090 180 c0 -5 11 -10 25 -10 23 0 24 -2 27 -82 2 -54 7 -83 16 -86
9 -3 12 18 12 82 0 85 0 86 25 86 14 0 25 5 25 10 0 6 -28 10 -65 10 -37 0
-65 -4 -65 -10z"/>
<path d="M2250 120 c0 -62 3 -74 25 -95 29 -30 68 -32 95 -5 16 16 20 33 20
95 0 60 -3 75 -15 75 -12 0 -15 -14 -15 -68 0 -70 -10 -92 -42 -92 -26 0 -38
31 -38 99 0 48 -3 61 -15 61 -12 0 -15 -14 -15 -70z"/>
<path d="M2430 95 c0 -78 3 -95 15 -95 10 0 15 11 15 35 0 28 4 35 19 35 11 0
22 -8 26 -19 7 -24 43 -56 52 -47 4 4 -1 20 -11 37 -16 28 -17 32 -2 48 19 21
21 72 4 89 -7 7 -36 12 -65 12 l-53 0 0 -95z m93 54 c16 -26 1 -49 -33 -49
-28 0 -30 3 -30 36 0 32 2 35 26 32 15 -2 32 -10 37 -19z"/>
<path d="M2602 98 l3 -93 58 -3 c46 -2 57 0 57 13 0 11 -11 15 -45 15 -43 0
-45 1 -45 30 0 28 2 30 40 30 22 0 40 5 40 10 0 6 -18 10 -41 10 -38 0 -40 1
-37 28 3 24 7 27 46 30 64 5 50 22 -18 22 l-61 0 3 -92z"/>
<path d="M2842 98 c2 -59 7 -93 15 -95 8 -3 13 11 15 39 3 42 4 43 38 43 33 0
35 -2 40 -38 9 -72 25 -44 28 51 2 77 0 92 -13 92 -11 0 -15 -11 -15 -41 l0
-40 -37 3 c-37 3 -38 4 -38 41 0 29 -4 37 -18 37 -16 0 -17 -9 -15 -92z"/>
<path d="M3220 95 c0 -73 3 -96 13 -93 7 3 14 30 17 68 l5 63 17 -36 c10 -21
21 -37 26 -37 5 0 17 17 28 37 l19 38 3 -67 c2 -52 6 -68 17 -68 12 0 15 19
15 95 0 84 -2 95 -17 95 -10 0 -28 -18 -42 -41 l-23 -42 -22 39 c-12 21 -29
40 -39 42 -15 3 -17 -7 -17 -93z"/>
<path d="M3432 98 l3 -93 58 -3 c46 -2 57 0 57 13 0 11 -11 15 -46 15 -44 0
-45 1 -42 28 3 23 8 27 41 30 20 2 37 7 37 12 0 5 -17 10 -37 12 -33 3 -38 6
-38 28 0 22 5 25 43 28 64 5 50 22 -18 22 l-61 0 3 -92z"/>
<path d="M3740 181 c0 -5 10 -11 23 -13 20 -3 22 -9 25 -86 2 -60 6 -82 15
-79 8 2 13 33 15 85 3 80 4 82 27 82 14 0 25 5 25 10 0 6 -28 10 -65 10 -36 0
-65 -4 -65 -9z"/>
<path d="M4080 94 c0 -72 3 -95 13 -92 6 3 13 19 15 36 2 23 8 32 22 32 10 0
21 -8 25 -19 7 -24 43 -56 52 -47 4 4 -1 20 -11 37 -16 28 -17 32 -2 48 19 21
21 72 4 89 -7 7 -36 12 -65 12 l-53 0 0 -96z m93 55 c16 -26 1 -49 -33 -49
-28 0 -30 3 -30 36 0 32 2 35 26 32 15 -2 32 -10 37 -19z"/>
<path d="M4252 98 l3 -93 59 0 c75 0 91 22 19 27 -44 3 -48 5 -48 28 0 22 5
25 38 28 20 2 37 7 37 12 0 5 -17 10 -37 12 -33 3 -38 6 -38 28 0 22 5 25 43
28 64 5 50 22 -18 22 l-61 0 3 -92z"/>
</g>
</svg>
