<svg width="782" height="597" viewBox="0 0 782 597" fill="none" xmlns="http://www.w3.org/2000/svg">
<path d="M0 0.605066C0 0.907599 7.87045 9.37849 17.4563 19.463C27.0421 29.5474 70.0268 75.0284 113.012 120.509C155.895 165.99 196.156 208.446 202.311 214.9L213.612 226.598L211.493 239.607C209.778 250.397 209.475 257.255 209.475 279.844C209.475 309.795 210.383 316.652 216.942 336.922C220.574 347.914 224.106 353.965 235.811 369.293C257.808 398.034 397.054 570.175 404.824 578.445C418.143 592.26 428.738 597 446.799 597C456.89 597 466.577 594.58 474.245 590.143C479.997 586.916 488.473 578.848 493.518 572.192L497.251 567.049L502.195 567.856C521.569 571.083 539.832 565.94 553.454 553.435C556.986 550.208 560.215 547.586 560.719 547.586C561.224 547.586 564.554 549.099 568.085 551.015C578.075 556.259 585.239 558.074 596.843 557.973C613.592 557.973 624.288 554.141 637.406 543.452C641.341 540.124 644.973 537.502 645.478 537.502C645.882 537.603 651.028 543.552 656.88 550.813C675.446 573.907 679.886 578.142 691.591 583.89C706.222 591.151 717.624 592.664 733.062 589.437C750.619 585.806 767.874 572.091 775.744 555.553C780.587 545.468 782 539.216 782 528.123C782 518.442 779.982 509.164 776.45 502.105C772.515 494.441 759.599 477.903 698.351 401.866C667.576 363.545 639.928 329.157 636.901 325.426C633.874 321.694 631.553 318.366 631.856 318.165C632.058 317.862 635.892 319.072 640.332 320.787C652.137 325.325 669.19 329.459 681.601 330.871C711.57 333.997 738.914 325.224 756.068 306.668C764.14 297.895 766.36 292.752 766.36 282.869C766.259 275.81 765.855 273.995 763.03 268.448C759.095 260.885 747.289 248.179 736.594 240.01C732.457 236.884 721.054 228.917 711.368 222.362C689.875 207.841 682.207 202.496 641.946 173.755C581.808 130.695 548.611 110.526 514.102 95.8024C483.226 82.6926 456.486 76.5411 427.931 76.3394L412.391 76.1377L382.221 38.1192L351.95 -1.58615e-05H322.285H292.518L295.344 4.73965C296.857 7.46246 310.177 24.5052 324.908 42.8589C339.64 61.1118 353.968 79.0621 356.794 82.4909L361.94 88.9449L351.244 94.4914C337.622 101.55 320.771 113.047 316.332 118.291C304.627 132.006 312.396 156.612 329.55 159.839C334.797 160.746 338.934 159.032 352.959 149.553C390.395 124.442 424.5 117.887 465.265 128.073C495.838 135.636 525.706 151.973 585.239 193.622C628.224 223.774 678.171 257.255 689.674 263.709C703.094 271.171 714.698 279.642 718.128 284.18L720.247 287.105L711.57 285.289C706.726 284.382 694.416 282.062 684.124 280.348C673.832 278.533 661.622 276.012 656.88 274.6C635.69 268.549 609.153 252.414 586.954 232.043C578.276 224.077 573.837 221.757 567.076 221.656C559.206 221.556 554.968 223.472 543.566 232.245C526.009 245.859 512.487 252.817 493.417 257.86C480.501 261.288 456.89 262.196 442.562 259.776C424.702 256.75 408.154 250.397 390.798 239.909C377.58 231.943 369.508 232.043 360.628 240.212C355.785 244.649 352.152 252.717 352.152 258.969C352.152 271.675 358.408 277.928 383.432 290.533C402.301 300.013 423.188 306.164 444.176 308.484C475.658 312.013 510.369 305.66 539.227 291.239L545.18 288.214L547.4 290.634C548.611 291.844 572.525 321.291 600.475 355.981C684.124 459.851 686.949 463.381 708.542 490.206C734.575 522.375 734.576 522.476 734.576 528.325C734.576 539.821 723.274 546.88 712.78 541.939C710.359 540.729 701.177 530.14 680.794 504.828C665.053 485.365 650.927 467.415 649.211 464.894C644.973 458.54 584.23 384.823 582.817 384.319C582.212 384.117 578.276 380.487 574.038 376.251C562.435 364.654 551.84 359.108 536.805 356.99C523.688 355.175 507.543 358.906 495.939 366.671C484.941 373.932 475.456 386.84 471.823 399.345L470.209 404.891L463.348 406.202C453.358 408.118 442.965 413.463 435.095 421.026C427.022 428.59 422.28 436.153 418.547 447.145L415.923 455.112L408.658 456.927C400.081 459.145 391.605 463.482 385.45 468.927C383.029 471.146 380.607 472.961 380.203 472.961C379.396 472.961 380.405 474.07 312.901 390.47C262.247 327.644 263.559 329.56 259.22 312.618C251.552 282.97 256.294 238.699 271.833 194.025C274.356 186.865 276.071 180.714 275.668 180.411C274.659 179.403 234.701 162.36 233.389 162.36C232.784 162.36 231.472 164.578 230.463 167.402C229.454 170.125 228.344 172.444 228.041 172.444C227.638 172.444 214.016 158.326 197.669 140.981C161.344 102.458 152.566 93.1804 140.255 80.1714C135.009 74.625 130.266 69.5828 129.661 68.9777C129.156 68.3726 114.222 52.6408 96.4635 33.9846L64.3763 -1.58615e-05H32.1881C14.5301 -1.58615e-05 0 0.302532 0 0.605066ZM534.585 405.799C538.924 408.118 555.977 426.976 575.451 451.179C609.556 493.332 610.464 494.643 610.464 498.374C610.464 505.836 602.897 512.19 595.531 510.778C590.788 509.971 585.844 504.828 567.379 481.735C559.811 472.154 549.216 459.145 543.868 452.792C538.621 446.439 532.87 439.38 531.356 437.161C529.742 434.943 526.009 430.102 522.981 426.472C516.625 418.505 516.019 414.572 520.358 409.429C524.596 404.387 529.439 403.177 534.585 405.799ZM480.501 453.902C481.813 454.507 485.244 458.036 488.17 461.868C491.096 465.7 500.48 477.297 509.057 487.684C523.486 505.03 524.697 506.845 524.697 510.475C524.697 513.702 523.99 515.215 521.266 517.938C517.331 521.871 512.79 522.476 508.451 519.551C507.039 518.644 496.444 507.147 485.042 494.139C470.209 477.197 464.054 469.532 463.549 467.213C461.834 458.44 472.429 450.069 480.501 453.902ZM431.16 507.954C439.03 516.324 454.872 536.695 455.376 539.014C455.881 542.141 453.661 547.183 451.138 548.494C450.028 549.099 447.809 549.603 446.093 549.603C443.369 549.603 441.552 547.687 428.94 532.359C416.629 517.534 414.712 514.711 414.712 511.685C414.712 506.946 418.446 503.215 423.188 503.215C426.013 503.215 427.426 504.122 431.16 507.954Z" fill="black"/>
</svg>
